<svg fill="#8a5013" xmlns="http://www.w3.org/2000/svg" xmlns:xlink="http://www.w3.org/1999/xlink" xmlns:serif="http://www.serif.com/" viewBox="0 0 492 623.75" version="1.1" xml:space="preserve" style="" x="0px" y="0px" fill-rule="evenodd" clip-rule="evenodd" stroke-linejoin="round" stroke-miterlimit="2">
    <g transform="matrix(1,0,0,1,-1473,-9480)">
        <g transform="matrix(1,0,0,1,-90,77.0503)">
            <path d="M1734.15,9477.59C1730.65,9435.75 1695.67,9403.58 1653.68,9403.58C1653.68,9403.58 1653.68,9403.58 1653.68,9403.58C1611.7,9403.58 1576.72,9435.75 1573.22,9477.59C1571.51,9497.97 1569.57,9521.09 1567.67,9543.66C1561.6,9616.09 1561.6,9688.91 1567.67,9761.34C1569.57,9783.91 1571.51,9807.03 1573.22,9827.41C1576.72,9869.25 1611.7,9901.42 1653.68,9901.42C1653.68,9901.42 1653.68,9901.42 1653.68,9901.42C1695.67,9901.42 1730.65,9869.25 1734.15,9827.41C1735.86,9807.03 1737.8,9783.91 1739.69,9761.34C1745.77,9688.91 1745.77,9616.09 1739.69,9543.66C1737.8,9521.09 1735.86,9497.97 1734.15,9477.59ZM1688.57,9823.19C1692.32,9825.99 1697.49,9825.94 1701.18,9823.07C1704.88,9820.19 1706.21,9815.2 1704.42,9810.87C1704.42,9810.87 1700.85,9802.19 1696.32,9791.22C1683.56,9760.29 1662.66,9733.39 1635.84,9713.39C1626.33,9706.29 1618.8,9700.68 1618.8,9700.68C1615.05,9697.88 1609.88,9697.93 1606.18,9700.8C1602.48,9703.68 1601.16,9708.67 1602.94,9713C1602.94,9713 1606.52,9721.68 1611.05,9732.65C1623.81,9763.58 1644.7,9790.48 1671.53,9810.48C1681.04,9817.58 1688.57,9823.19 1688.57,9823.19ZM1688.57,9717.72C1692.32,9720.52 1697.49,9720.47 1701.18,9717.59C1704.88,9714.72 1706.21,9709.73 1704.42,9705.4C1704.42,9705.4 1700.85,9696.72 1696.32,9685.74C1683.56,9654.81 1662.66,9627.92 1635.84,9607.91C1626.33,9600.82 1618.8,9595.21 1618.8,9595.21C1615.05,9592.41 1609.88,9592.46 1606.18,9595.33C1602.48,9598.2 1601.16,9603.2 1602.94,9607.53C1602.94,9607.53 1606.52,9616.2 1611.05,9627.18C1623.81,9658.11 1644.7,9685.01 1671.53,9705.01C1681.04,9712.11 1688.57,9717.72 1688.57,9717.72ZM1688.57,9608.28C1692.32,9611.09 1697.49,9611.03 1701.18,9608.16C1704.88,9605.28 1706.21,9600.29 1704.42,9595.96C1704.42,9595.96 1700.85,9587.29 1696.32,9576.31C1683.56,9545.38 1662.66,9518.48 1635.84,9498.48C1626.33,9491.38 1618.8,9485.77 1618.8,9485.77C1615.05,9482.97 1609.88,9483.02 1606.18,9485.9C1602.48,9488.77 1601.16,9493.76 1602.94,9498.09C1602.94,9498.09 1606.52,9506.77 1611.05,9517.75C1623.81,9548.68 1644.7,9575.57 1671.53,9595.58C1681.04,9602.67 1688.57,9608.28 1688.57,9608.28Z" />
            <path d="M1763.47,9717.78C1793.62,9652.75 1829.08,9590.32 1869.49,9531.13C1882.26,9512.42 1895.34,9493.26 1906.88,9476.37C1930.55,9441.69 1976.84,9430.94 2013.37,9451.64C2013.37,9451.64 2013.37,9451.64 2013.37,9451.64C2049.9,9472.33 2064.48,9517.56 2046.91,9555.69C2038.35,9574.27 2028.64,9595.34 2019.17,9615.91C1988.75,9681.93 1952.86,9745.28 1911.88,9805.32C1899.11,9824.02 1886.03,9843.18 1874.49,9860.08C1850.82,9894.75 1804.53,9905.5 1768,9884.81C1768,9884.8 1768,9884.8 1768,9884.8C1758.91,9879.66 1751.18,9872.99 1744.97,9865.29C1750.36,9854.25 1753.83,9842.07 1754.91,9829.16C1756.62,9808.77 1758.56,9785.65 1760.45,9763.08C1761.72,9748 1762.73,9732.89 1763.47,9717.78ZM1836.91,9833.93C1838.8,9838.22 1843.31,9840.72 1847.95,9840.04C1852.59,9839.36 1856.2,9835.67 1856.78,9831.02C1856.78,9831.02 1857.94,9821.71 1859.41,9809.93C1863.56,9776.73 1858.63,9743.03 1845.15,9712.41C1840.37,9701.54 1836.59,9692.95 1836.59,9692.95C1834.7,9688.66 1830.18,9686.16 1825.55,9686.84C1820.91,9687.51 1817.3,9691.2 1816.72,9695.85C1816.72,9695.85 1815.56,9705.17 1814.08,9716.95C1809.94,9750.15 1814.87,9783.85 1828.35,9814.47C1833.13,9825.34 1836.91,9833.93 1836.91,9833.93ZM1888.89,9742.16C1890.78,9746.45 1895.3,9748.95 1899.93,9748.27C1904.57,9747.59 1908.18,9743.9 1908.76,9739.25C1908.76,9739.25 1909.92,9729.94 1911.4,9718.16C1915.54,9684.96 1910.61,9651.26 1897.13,9620.63C1892.35,9609.77 1888.57,9601.18 1888.57,9601.18C1886.68,9596.89 1882.17,9594.39 1877.53,9595.07C1872.89,9595.74 1869.28,9599.43 1868.7,9604.08C1868.7,9604.08 1867.54,9613.4 1866.07,9625.18C1861.92,9658.38 1866.85,9692.08 1880.33,9722.7C1885.11,9733.57 1888.89,9742.16 1888.89,9742.16ZM1942.83,9646.94C1944.72,9651.23 1949.23,9653.73 1953.87,9653.05C1958.51,9652.37 1962.12,9648.68 1962.7,9644.03C1962.7,9644.03 1963.86,9634.72 1965.33,9622.94C1969.48,9589.74 1964.55,9556.04 1951.07,9525.41C1946.29,9514.55 1942.51,9505.96 1942.51,9505.96C1940.62,9501.67 1936.1,9499.17 1931.47,9499.85C1926.83,9500.52 1923.22,9504.21 1922.64,9508.86C1922.64,9508.86 1921.48,9518.18 1920,9529.96C1915.86,9563.16 1920.79,9596.86 1934.27,9627.48C1939.05,9638.35 1942.83,9646.94 1942.83,9646.94Z" />
        </g>
    </g>
</svg>